PathFileType	4	(X/Y/Z)	3_coords_data.trc
DataRate	CameraRate	NumFrames	NumMarkers	Units	OrigDataRate	OrigDataStartFrame	OrigNumFrames
30.0	30.0	6	21	m	30.0	1	81
Frame#	Time	THUMB_TIP	THUMB_IP	THUMB_MCP	THUMB_CMC	INDEX_TIP	INDEX_DIP	INDEX_PIP	INDEX_MCP	MIDDLE_TIP	MIDDLE_DIP	MIDDLE_PIP	MIDDLE_MCP	RING_TIP	RING_DIP	RING_PIP	RING_MCP	PINKY_TIP	PINKY_DIP	PINKY_PIP	PINKY_MCP	WRIST
X1	Y1	Z1	X2	Y2	Z2	X3	Y3	Z3	X4	Y4	Z4	X5	Y5	Z5	X6	Y6	Z6	X7	Y7	Z7	X8	Y8	Z8	X9	Y9	Z9	X10	Y10	Z10	X11	Y11	Z11	X12	Y12	Z12	X13	Y13	Z13	X14	Y14	Z14	X15	Y15	Z15	X16	Y16	Z16	X17	Y17	Z17	X18	Y18	Z18	X19	Y19	Z19	X20	Y20	Z20	X21	Y21	Z21
0	-2.749317978547796e-18	0.4865165504428093	-0.01196072786505531	-0.17415145686920513	0.4853675463416205	-0.014459935805817059	-0.15133843976834177	0.47782676726433915	-0.02038420930266205	-0.12172662397730633	0.47396518885843963	-0.0271932024951258	-0.07781061523425137	0.5037237786954452	-0.022827164026404834	-0.09821772092314673	0.5216751019190439	-0.02443355709102235	-0.0999980287178362	0.5368115829721389	-0.009889497782026302	-0.11383157899047752	0.5003953479875054	0.011533000753317646	-0.11917671510166711	0.5011958552885334	-0.018420768747383076	-0.08206465211835978	0.519262866989964	-0.01962657482296215	-0.08170531955865978	0.5379251102968069	-0.0012456857037230762	-0.0944831574016769	0.5035999735079536	0.026336709203006514	-0.1020425486890581	0.5008108461787154	-0.0031009379450560592	-0.07229159848239364	0.5187016771924797	-0.002507277826101495	-0.07015484082180246	0.5358391612090626	0.013974831665920062	-0.07755934534772335	0.5037243576068636	0.03778714405372896	-0.0835871146148397	0.502024834880988	-0.0028116798141729626	-0.05853173802614797	0.5186346813430986	-0.0021337332840235534	-0.05445088162002798	0.5307454634260589	0.014834345937278948	-0.056945929491041936	0.5032941505770983	0.037433588585678856	-0.06299432643463221	0.4622830810018608	-0.023011742144276925	-0.051989820119430985
1	0.03333333333333339	0.4868175671423368	-0.013265081702559134	-0.17379445303484292	0.4859797397327008	-0.015565821475450936	-0.15094703213599536	0.4784268855698438	-0.021759974361421075	-0.12139357440225723	0.47506915023936835	-0.027320174252021934	-0.07726082249817767	0.5039934423646906	-0.02400790024728483	-0.09771971545472069	0.5219178847200009	-0.02520534919499784	-0.100017645451213	0.5373010299165331	-0.010793973465731188	-0.1137173142958352	0.5009862741390723	0.010757080943528785	-0.11923335097741183	0.5026139908321305	-0.020008469133955376	-0.08224400462144366	0.5207100275581434	-0.020593697845831205	-0.0818070124412067	0.5397285380108888	-0.0024860261508162784	-0.0944489282748282	0.5052786053959383	0.024948697577817203	-0.10197793868516303	0.5030075824325462	-0.00492616885210595	-0.07206642353124404	0.5208961968287071	-0.004351903401080048	-0.06990593882238172	0.5383191052086145	0.011871040301514313	-0.0772160920497642	0.5064393127126301	0.03596908980342578	-0.08335479505743681	0.5039718475103425	-0.004318712426534255	-0.058037592128551196	0.5206510404024648	-0.0034847879608101984	-0.054281384672506205	0.5327312510542779	0.013500205452700031	-0.05680933410847888	0.5052391127143536	0.0361932024459059	-0.06229510369576774	0.4622830810018609	-0.023011742144276925	-0.051989820119430985
2	0.06666666666666676	0.4870621559920938	-0.014221768567365234	-0.17344972133467018	0.4864410833612788	-0.016393313805203813	-0.15058274383288228	0.4788606077708951	-0.02280713097231446	-0.1210832635125364	0.47588923822052676	-0.027411256861520572	-0.07681292369238724	0.5041998728129712	-0.024905623904686536	-0.0973451396722993	0.5220861991314679	-0.025744281335206898	-0.10006101605801415	0.5376615785768126	-0.011436768930843888	-0.1136519128986398	0.5014081116838548	0.010190639058318962	-0.11927129506321132	0.5037009880001072	-0.02124260274471168	-0.0823676602745127	0.5218049272186656	-0.02132198212290748	-0.0818766575402432	0.5410934644537386	-0.0034259765116060326	-0.09441040656004868	0.5065346157512006	0.023884633213571482	-0.10189134859926591	0.5046298524878361	-0.006369544977773978	-0.07185320651462468	0.5225175164881193	-0.005824436920987663	-0.06967735407950859	0.5401539852282337	0.010200402587465573	-0.07691195621834734	0.508460454166073	0.034522802495843885	-0.0831298164217279	0.5054345830917919	-0.005489127007303307	-0.0576669098683561	0.5221630339717329	-0.0045612709506331894	-0.05416005739134777	0.5342196250314282	0.012436436334266499	-0.05671516562313439	0.5066992360020008	0.03520058792275549	-0.06174557724896379	0.462283081001861	-0.023011742144276925	-0.051989820119430985
3	0.10000000000000014	0.48727545668845074	-0.014852126076188576	-0.17315286152592047	0.48679144672576014	-0.01695242741931935	-0.1502759196712043	0.47917020534842036	-0.023544669167906207	-0.12082631816971512	0.4764710987385298	-0.02747426494572458	-0.07647360573257778	0.5043492580468609	-0.02554880459581721	-0.09708489300489631	0.5221958445259017	-0.026082940791303244	-0.10012035830214316	0.5379102581295633	-0.0118496806548537	-0.11362892388036844	0.5016843019152604	0.009811289124536438	-0.11929624940267264	0.504496029363309	-0.022104469184091813	-0.08244795636361202	0.5225972745052226	-0.021828206225274482	-0.08192968704180348	0.5420787859149694	-0.004085278104093426	-0.09438234799753947	0.5074268339759371	0.023124175303100125	-0.10180095926224114	0.5057762147083629	-0.0074264704071762555	-0.07167419521258334	0.5236639735479086	-0.0069179207621000716	-0.06949028565476112	0.5414481805160796	0.008968626141197866	-0.07666800040268607	0.5098896296589899	0.03345358079315536	-0.082934235116776	0.5064759922542366	-0.006325945382990472	-0.05740602149209717	0.5232384488743634	-0.0053610361644953475	-0.054076006738613236	0.5352784450501351	0.011645153487734539	-0.056652831257239855	0.5077390870106755	0.034460357099175	-0.06133617343382314	0.462283081001861	-0.023011742144276925	-0.051989820119430985
4	0.13333333333333353	0.48747456271628575	-0.015189394534707912	-0.17292048325224568	0.48706092616020125	-0.017266190273139803	-0.1500400150695292	0.479387910107534	-0.024002819944629272	-0.12063656892244101	0.47685574799540764	-0.0275153333800926	-0.07623904191469422	0.5044472060606581	-0.025967096933281808	-0.09692691855101987	0.52225952781095	-0.026252657612700125	-0.100188766027903	0.5380636274927519	-0.01206531146592893	-0.1136408839116923	0.5018375982663785	0.009594639020712892	-0.1193116374247769	0.5050361541566168	-0.022603410433109095	-0.08249417916609281	0.5231334400699283	-0.022136155049323758	-0.08197464574254476	0.5427406781637497	-0.00449284192604571	-0.09437138992665095	0.508010782611371	0.022636871630216104	-0.10171719949919295	0.5065345985272833	-0.008119977858731198	-0.07153941232405503	0.5244232440881786	-0.007652859004062096	-0.06935351205819884	0.5422965914796252	0.008151179290936672	-0.07649184558885491	0.5108227874542782	0.032739788933251524	-0.08277840029170491	0.5071582632120173	-0.0068517418848130784	-0.057238974034690804	0.5239430064002863	-0.0058995450946496275	-0.05401939061805838	0.5359733802852914	0.011110917907277695	-0.056612896285501035	0.5084215557439762	0.033959778861531675	-0.06105248731821489	0.4622830810018609	-0.023011742144276925	-0.051989820119430985
5	0.1666666666666669	0.48766914813903306	-0.01527517848462323	-0.17275534547701837	0.487270968452878	-0.017366770677327947	-0.1498759509256551	0.4795371602674732	-0.024219708552520314	-0.12051534034906586	0.47707933443442974	-0.027539228693318374	-0.07609879075086701	0.5044996896279754	-0.026191091241120512	-0.09685693840745657	0.5222875742718387	-0.02628355661022541	-0.10026026179087622	0.5381379539772958	-0.01211681894306238	-0.11367960752986889	0.5018902214449108	0.009514924034522698	-0.11931925964789769	0.5053595758752225	-0.022776385619663775	-0.08251424306463762	0.5234564921870868	-0.02227390501551174	-0.08201511057337285	0.5431323917967324	-0.0046835270443759125	-0.09437824639660669	0.5083385515402227	0.02238554605018639	-0.1016447368153528	0.5069806599801648	-0.008491593572252487	-0.0714498734718384	0.5248707220992213	-0.008068176582064268	-0.0692666658709159	0.5427826207652758	0.007702933549830648	-0.07638115463572759	0.5113475789387044	0.03234200071940324	-0.08266409569664834	0.5075409407501413	-0.007102759981589268	-0.05714922283414614	0.5243386657907485	-0.00620461807050221	-0.053982240900552814	0.5363662316747425	0.010805975356302233	-0.05658788653534996	0.5088063139044738	0.03367380722475266	-0.06087701804794288	0.462283081001861	-0.023011742144276925	-0.051989820119430985
